<svg xmlns="http://www.w3.org/2000/svg" viewBox="0 0 800 440" font-family="Inter, Arial, sans-serif">
  <defs>
    <marker id="arrow" viewBox="0 0 10 7" refX="10" refY="3.5" markerWidth="8" markerHeight="6" orient="auto-start-reverse">
      <path d="M 0 0 L 10 3.5 L 0 7 z" fill="#9CA3AF"/>
    </marker>
  </defs>

  <!-- Background -->
  <rect width="800" height="440" rx="12" fill="#0E1117"/>

  <!-- Title -->
  <text x="400" y="36" text-anchor="middle" fill="#E5E7EB" font-size="15" font-weight="700">VERSION DIFF — function-level change detection</text>
  <text x="400" y="56" text-anchor="middle" fill="#6B7280" font-size="12">v1 snapshot vs v2 snapshot &#x2192; diff_status per node</text>

  <!-- v1 zone -->
  <rect x="30" y="75" width="340" height="275" rx="14" fill="none" stroke="#4B5563" stroke-width="1.5" stroke-dasharray="6 4" opacity="0.5"/>
  <text x="200" y="97" text-anchor="middle" fill="#9CA3AF" font-size="12" font-weight="600">v1</text>

  <!-- v2 zone -->
  <rect x="430" y="75" width="340" height="275" rx="14" fill="none" stroke="#4B5563" stroke-width="1.5" stroke-dasharray="6 4" opacity="0.5"/>
  <text x="600" y="97" text-anchor="middle" fill="#9CA3AF" font-size="12" font-weight="600">v2 (with diff_status)</text>

  <!-- Arrow between zones -->
  <line x1="375" y1="210" x2="425" y2="210" stroke="#9CA3AF" stroke-width="2" marker-end="url(#arrow)"/>
  <text x="400" y="200" text-anchor="middle" fill="#6B7280" font-size="11" font-weight="500">diff</text>

  <!-- === v1 nodes === -->

  <!-- File: utils.py -->
  <circle cx="120" cy="150" r="22" fill="#42A5F5" opacity="0.9"/>
  <text x="120" y="155" text-anchor="middle" fill="#fff" font-size="11" font-weight="600">utils.py</text>

  <!-- File: models.py -->
  <circle cx="280" cy="150" r="22" fill="#42A5F5" opacity="0.9"/>
  <text x="280" y="155" text-anchor="middle" fill="#fff" font-size="11" font-weight="600">models.py</text>

  <!-- Function: slugify -->
  <circle cx="80" cy="240" r="16" fill="#AB47BC" opacity="0.8"/>
  <text x="80" y="244" text-anchor="middle" fill="#fff" font-size="10" font-weight="500">slugify</text>

  <!-- Function: format_title -->
  <circle cx="160" cy="240" r="16" fill="#AB47BC" opacity="0.8"/>
  <text x="160" y="244" text-anchor="middle" fill="#fff" font-size="10" font-weight="500">format_title</text>

  <!-- Function: Item -->
  <circle cx="280" cy="240" r="16" fill="#AB47BC" opacity="0.8"/>
  <text x="280" y="244" text-anchor="middle" fill="#fff" font-size="10" font-weight="500">Item</text>

  <!-- Contains edges v1 -->
  <line x1="108" y1="168" x2="88" y2="222" stroke="#9CA3AF" stroke-width="1" opacity="0.5"/>
  <line x1="132" y1="168" x2="152" y2="222" stroke="#9CA3AF" stroke-width="1" opacity="0.5"/>
  <line x1="280" y1="172" x2="280" y2="222" stroke="#9CA3AF" stroke-width="1" opacity="0.5"/>

  <!-- === v2 nodes (with diff colours) === -->

  <!-- File: utils.py — modified (yellow) -->
  <circle cx="520" cy="150" r="22" fill="#FDD835" opacity="0.9"/>
  <text x="520" y="155" text-anchor="middle" fill="#1B1F27" font-size="11" font-weight="600">utils.py</text>
  <text x="520" y="120" text-anchor="middle" fill="#FDD835" font-size="9" font-weight="600">MODIFIED</text>

  <!-- File: models.py — deleted (red) -->
  <circle cx="680" cy="150" r="22" fill="#E53935" opacity="0.7"/>
  <text x="680" y="155" text-anchor="middle" fill="#fff" font-size="11" font-weight="600">models.py</text>
  <text x="680" y="120" text-anchor="middle" fill="#E53935" font-size="9" font-weight="600">DELETED</text>
  <!-- Strike-through -->
  <line x1="655" y1="150" x2="705" y2="150" stroke="#E53935" stroke-width="2" opacity="0.6"/>

  <!-- Function: slugify — unchanged (green) -->
  <circle cx="480" cy="240" r="16" fill="#43A047" opacity="0.8"/>
  <text x="480" y="244" text-anchor="middle" fill="#fff" font-size="10" font-weight="500">slugify</text>
  <text x="480" y="268" text-anchor="middle" fill="#43A047" font-size="9">unchanged</text>

  <!-- Function: format_title — modified (yellow) -->
  <circle cx="560" cy="240" r="16" fill="#FDD835" opacity="0.8"/>
  <text x="560" y="244" text-anchor="middle" fill="#1B1F27" font-size="10" font-weight="500">format_title</text>
  <text x="560" y="268" text-anchor="middle" fill="#FDD835" font-size="9">modified</text>

  <!-- Function: Item.__repr__ — added (blue) -->
  <circle cx="680" cy="240" r="16" fill="#1E88E5" opacity="0.9"/>
  <circle cx="680" cy="240" r="16" fill="none" stroke="#1E88E5" stroke-width="2.5" opacity="0.5">
    <animate attributeName="r" values="16;19;16" dur="2s" repeatCount="indefinite"/>
    <animate attributeName="opacity" values="0.5;0.2;0.5" dur="2s" repeatCount="indefinite"/>
  </circle>
  <text x="680" y="244" text-anchor="middle" fill="#fff" font-size="10" font-weight="500">__repr__</text>
  <text x="680" y="268" text-anchor="middle" fill="#1E88E5" font-size="9">added</text>

  <!-- Contains edges v2 -->
  <line x1="508" y1="168" x2="488" y2="222" stroke="#9CA3AF" stroke-width="1" opacity="0.5"/>
  <line x1="532" y1="168" x2="552" y2="222" stroke="#9CA3AF" stroke-width="1" opacity="0.5"/>

  <!-- Legend -->
  <rect x="30" y="370" width="740" height="50" rx="10" fill="#1B1F27"/>
  <text x="55" y="392" fill="#9CA3AF" font-size="11" font-weight="600">LEGEND</text>

  <circle cx="135" cy="400" r="7" fill="#43A047"/>
  <text x="148" y="404" fill="#D1D5DB" font-size="11">Unchanged</text>

  <circle cx="240" cy="400" r="7" fill="#FDD835"/>
  <text x="253" y="404" fill="#D1D5DB" font-size="11">Modified</text>

  <circle cx="340" cy="400" r="7" fill="#E53935"/>
  <text x="353" y="404" fill="#D1D5DB" font-size="11">Deleted</text>

  <circle cx="425" cy="400" r="7" fill="#1E88E5"/>
  <text x="438" y="404" fill="#D1D5DB" font-size="11">Added</text>

  <line x1="488" y1="386" x2="488" y2="414" stroke="#4B5563" stroke-width="1"/>

  <circle cx="505" cy="400" r="7" fill="#42A5F5"/>
  <text x="518" y="404" fill="#D1D5DB" font-size="11">File</text>

  <circle cx="575" cy="400" r="7" fill="#AB47BC"/>
  <text x="588" y="404" fill="#D1D5DB" font-size="11">Function</text>
</svg>
